<?xml version="1.0" encoding="utf-8"?>
<!-- Generator: Adobe Illustrator 25.0.0, SVG Export Plug-In . SVG Version: 6.00 Build 0)  -->
<svg version="1.1" id="Icon_x5F_contour" xmlns="http://www.w3.org/2000/svg" xmlns:xlink="http://www.w3.org/1999/xlink" x="0px"
	 y="0px" viewBox="0 0 192 192" style="enable-background:new 0 0 192 192;" xml:space="preserve">
<path d="M129.65674,176H62.34326L16,129.65674V62.34326L62.34326,16h67.31348L176,62.34326v67.31348L129.65674,176z M65.65674,168
	h60.68652L168,126.34326V65.65674L126.34326,24H65.65674L24,65.65674v60.68652L65.65674,168z M103.11114,128.88885
	C103.11114,132.77821,99.88873,136,96,136c-4.0004,0-7.11114-3.11073-7.11114-7.11115c0-3.99978,3.11073-7.11113,7.11114-7.11113
	C99.88873,121.77773,103.11114,125.00013,103.11114,128.88885z M90.88844,80.88898V56h10.2225v24.88898l-2.66653,30.66686h-4.88882
	L90.88844,80.88898z"/>
<g>
</g>
<g>
</g>
<g>
</g>
<g>
</g>
<g>
</g>
<g>
</g>
<g>
</g>
<g>
</g>
<g>
</g>
<g>
</g>
<g>
</g>
<g>
</g>
<g>
</g>
<g>
</g>
<g>
</g>
</svg>
